<svg width="105" height="20" viewBox="0 0 105 20" fill="none" xmlns="http://www.w3.org/2000/svg">
<g clip-path="url(#clip0_7143_2043)">
<path d="M35.9216 10.4522V10.243C35.9216 8.67396 36.9594 7.71507 38.3372 7.69762C39.8044 7.69762 40.7886 8.74368 40.7886 10.3127C40.7886 11.9167 39.7508 12.9627 38.3372 12.9627C36.9952 12.9631 35.9216 12.0038 35.9216 10.4522ZM38.2656 5.16978C36.6552 5.16978 35.8357 5.69915 35.4365 6.0251C35.1859 6.09482 35.2937 5.57897 35.1413 5.5531C35.1413 5.48626 33.327 5.7462 33.0586 6.0251V19.4479H35.9215L35.9573 15.072C36.8056 15.355 37.6933 15.5021 38.5876 15.5078C41.3432 15.5078 43.7587 13.8168 43.7587 10.4346C43.7588 8.79595 42.6315 5.16968 38.2656 5.16968V5.16978Z" fill="#292B2D"/>
<path d="M47.8016 10.3475C47.8016 8.84822 48.8573 7.76734 50.2709 7.76734C51.7023 7.76734 52.758 8.84822 52.758 10.3475C52.758 11.8469 51.7019 12.9277 50.2709 12.9277C48.8574 12.9451 47.8016 11.8469 47.8016 10.3475ZM44.8672 10.3475C44.8672 13.0672 47.3543 15.5254 50.2889 15.5254C53.2234 15.5254 55.6925 13.0672 55.6925 10.3475C55.6925 7.64535 53.2233 5.16968 50.2889 5.16968C47.3722 5.16968 44.8672 7.62789 44.8672 10.3475Z" fill="#292B2D"/>
<path d="M59.6206 10.4521V10.2428C59.6206 8.67375 60.6584 7.71497 62.0362 7.69751C63.5034 7.69751 64.4875 8.74358 64.4875 10.3126C64.4875 11.9165 63.4497 12.9626 62.0362 12.9626C60.6942 12.9626 59.6206 12.0037 59.6206 10.4521ZM61.9646 5.16968C60.3542 5.16968 59.5347 5.69905 59.1356 6.02499C58.8851 6.09472 58.9927 5.57887 58.8404 5.553C58.8404 5.48615 57.0262 5.7461 56.7578 6.02499V19.4481H59.6207L59.6565 15.0723C60.5048 15.3553 61.3925 15.5024 62.2868 15.5082C65.0424 15.5082 67.4579 13.8171 67.4579 10.4349C67.4578 8.79595 66.3305 5.16968 61.9646 5.16968Z" fill="#292B2D"/>
<path d="M78.0781 15.525H81.0754V5.16968H78.0781V15.525Z" fill="#292B2D"/>
<path d="M86.0435 10.5428V10.2356C86.0435 8.63426 86.9709 7.76734 88.3486 7.74946C89.8158 7.74946 90.092 8.94168 90.092 10.5428V15.5246H86.0435V10.5428ZM88.2771 5.16968C86.6667 5.16968 85.8472 5.7099 85.4481 6.04256C85.1976 6.11366 85.3052 5.58728 85.1529 5.56088C85.1529 5.49264 83.3387 5.75791 83.0703 6.04256V15.525H92.9178V10.5432C92.9177 8.87036 92.643 5.16968 88.2771 5.16968Z" fill="#292B2D"/>
<path d="M104.223 5.34246H100.696L97.3367 9.14266C97.3367 9.14266 97.3367 1.7825 97.3367 1.14317C97.3367 0.503841 97.3321 0.281683 97.209 0.183112C97.2056 0.0674023 94.7604 0.420385 94.4375 0.763894V15.5237H97.3362V11.5837L100.695 15.5238H104.222L99.9491 10.3808L104.223 5.34246Z" fill="#292B2D"/>
<path d="M79.5735 0.164093C80.4382 0.164093 81.1392 0.599893 81.1392 1.60242C81.1392 2.60496 79.5735 3.83784 79.5735 3.83784C79.5735 3.83784 78.0078 2.60485 78.0078 1.60242C78.0078 0.6 78.7087 0.164093 79.5735 0.164093Z" fill="#292B2D"/>
<path d="M70.0664 11.8674L68.5859 13.442C69.3579 14.8239 70.6641 15.4766 72.8678 15.5247C75.0222 15.5247 76.7785 14.7572 76.7734 12.2904C76.791 9.457 71.8087 9.33309 71.8087 8.19579C71.8087 7.79342 72.1139 7.42617 72.9038 7.42617C73.7117 7.42617 74.6391 7.75733 75.4519 8.31981L76.2199 6.31315C75.4263 5.62443 74.0708 5.16968 72.5448 5.16968C70.5162 5.16968 69.1364 6.3239 69.0937 8.31981C69.1117 10.8037 74.861 11.643 73.5467 12.9077C72.8589 13.4658 70.7716 12.852 70.0664 11.8674Z" fill="#292B2D"/>
<path d="M13.2289 19.4259C12.1835 19.4194 11.3398 18.9458 11.3398 17.8693C11.3398 16.7946 12.183 16.321 13.2289 16.3147V3.18442H16.3546V16.3202H18.3894C19.6838 16.3202 20.4222 15.3 20.4222 13.523V9.79192C20.4259 9.37699 20.5928 8.98046 20.8863 8.68935C21.1798 8.39823 21.5759 8.23628 21.9878 8.23903H26.995C28.0509 8.23903 28.9069 8.70602 28.9063 9.80686C28.9058 10.9077 28.0505 11.3445 26.995 11.3445C26.9096 11.3445 26.8249 11.3507 23.5518 11.3445V13.5223C23.5518 17.5786 20.8758 19.4254 18.3894 19.4254L13.2289 19.4259Z" fill="#292B2D"/>
<path d="M12.3653 4.249V3.26828H11.1913C9.89988 3.26828 9.15705 4.28858 9.15705 6.06542V9.79438C9.15383 10.2088 8.98761 10.605 8.69484 10.8961C8.40207 11.1872 8.00663 11.3495 7.59529 11.3473C2.08129 11.3535 1.96166 11.3473 1.96166 11.3473C1.05693 11.3199 0.00939206 10.8129 0 9.79997C0 8.71569 0.906228 8.24141 1.96166 8.24141H6.02799V6.06542C6.02799 2.00916 8.70494 0.16069 11.1917 0.16069H17.1504C18.2059 0.16069 19.0609 0.631323 19.0609 1.7155C19.0609 2.79075 18.2192 3.26086 17.1753 3.26828V4.2491L12.3653 4.249Z" fill="#292B2D"/>
</g>
<defs>
<clipPath id="clip0_7143_2043">
<rect width="104.223" height="19.6763" fill="white" transform="translate(0 0.162109)"/>
</clipPath>
</defs>
</svg>
